# xmcd
#
# Track frame offsets:
#	150
#	18587
#	34188
#	49176
#	63100
#	81705
#	98739
#	118093
#	133375
#	150952
#	169389
#	184990
#	199978
#	213902
#	232507
#	249541
#	268895
#	284177
#
# Disc length: 4023 seconds
#
# Revision: 1
# Processed by: cddbd v1.5.2PL0 Copyright (c) Steve Scherf et al.
# Submitted via: audiograbber 1.83.01
#
DISCID=100fb512
DTITLE=Various Artist - 0904-C
DYEAR=2009
DGENRE=Country
TTITLE0=Rascal Flatts - Here Comes Goodbye
TTITLE1=Montgomery Gentry - One In Every Crowd
TTITLE2=Katie Armiger - Trail Of Lies
TTITLE3=Jake Owen - Don't Think I Can't Love You
TTITLE4=Chuck Wicks - Man Of The House
TTITLE5=Julia Burton - What A Woman Wants
TTITLE6=Stve Azar - You're My Life
TTITLE7=Trace Adkins - Marry For Money
TTITLE8=Craig Morgan - God Must Really Love Me
TTITLE9=Rascal Flatts - Here Comes Goodbye - Vocal
TTITLE10=Montgomery Gentry - One In Every Crowd - Vocal
TTITLE11=Katie Armiger - Trail Of Lies - Vocal
TTITLE12=Jake Owen - Don't Think I Can't Love You - Vocal
TTITLE13=Chuck Wicks - Man Of The House - Vocal
TTITLE14=Julia Burton - What A Woman Wants - vocal
TTITLE15=Steve Azaar - You're My Life - Vocal
TTITLE16=Trace Adkins - Marry For Money - Vocal
TTITLE17=Craig Morgan - God Must Really Love Me - Vocal
EXTD=
EXTT0=
EXTT1=
EXTT2=
EXTT3=
EXTT4=
EXTT5=
EXTT6=
EXTT7=
EXTT8=
EXTT9=
EXTT10=
EXTT11=
EXTT12=
EXTT13=
EXTT14=
EXTT15=
EXTT16=
EXTT17=
PLAYORDER=
